PathFileType	3	(X/Y/Z)	D:\minhoCalibration\240510\subject2_KPNP\preferred\preferred17.trc
DataRate	CameraRate	NumFrames	NumMarkers	Units	OrigDataRate	OrigDataStartFrame	OrigNumFrames
200.0	200.0	30	10	mm	200.0	456	194	
Frame#	Time	Left_Ankle_Outer1			Left_Ankle_Inner1			Left_Knee_Outer1			Left_Knee_Inner1			Left_Wrist1			Right_Wrist1			Right_Knee_Inner1			Right_Knee_Outer1			Right_Ankle_Inner1			Right_Ankle_Outer1			
		X1	Y1	Z1	X2	Y2	Z2	X3	Y3	Z3	X4	Y4	Z4	X5	Y5	Z5	X6	Y6	Z6	X7	Y7	Z7	X8	Y8	Z8	X9	Y9	Z9	X10	Y10	Z10	
456	2.27	-618.84601	103.85384	-711.55389	-619.47723	110.18774	-654.12115	-482.11859	526.242	-750.66669	-500.10889	511.39432	-656.76398	-501.14267	968.12152	-824.06738	-637.01208	1150.7097	-562.33807	-431.87234	900.84845	-212.15881	-498.8244	962.53784	-190.19765	-501.2309	619.25745	84.724411	-563.91418	678.62842	134.63403
457	2.275	-619.39551	103.00837	-710.94507	-619.65222	108.6777	-654.70355	-483.34833	525.3421	-750.07703	-501.55313	510.67651	-656.28387	-500.47366	967.90112	-823.72321	-639.9162	1149.1193	-563.02399	-435.38681	892.52588	-214.4006	-501.93192	954.69171	-191.23497	-509.78983	605.49182	75.720947	-572.2265	664.12402	126.30941
458	2.28	-619.89471	102.00945	-710.04028	-620.76404	108.16355	-652.84686	-484.88275	523.92279	-749.20691	-503.13092	509.97757	-655.70093	-499.25943	968.10492	-823.95557	-643.12872	1147.3643	-563.69238	-439.04434	883.93701	-216.74373	-504.7475	946.65369	-192.72095	-518.40802	591.55865	66.293495	-580.77209	649.82507	118.00583
459	2.285	-620.40643	101.05837	-709.49597	-620.90936	105.88519	-654.42413	-485.73416	523.16937	-748.42358	-504.83173	509.32663	-655.10535	-498.47647	968.07904	-823.69568	-646.10541	1145.4973	-564.44122	-443.00238	875.20331	-219.11264	-507.51663	938.53436	-194.88239	-526.8064	577.60687	56.475952	-588.88574	635.0675	108.45984
460	2.29	-620.97772	100.12028	-709.00177	-621.51392	105.09052	-653.45203	-486.58704	522.34766	-747.53558	-506.56897	508.74518	-654.48547	-497.81412	967.82263	-823.01044	-649.3349	1143.4478	-565.37262	-447.10181	866.46411	-221.40765	-510.67532	930.30658	-196.56798	-535.15228	563.61096	46.360199	-597.36884	620.14587	99.155037
461	2.295	-621.48969	99.148773	-708.34979	-622.18323	103.59742	-653.32404	-487.23682	521.55365	-746.73553	-508.46793	508.1163	-653.89636	-497.07047	967.59888	-822.69733	-652.14948	1141.2761	-566.09943	-451.32971	857.76959	-223.78876	-514.20508	922.08502	-198.31686	-543.25732	549.69733	35.871189	-605.8241	605.42285	89.329094
462	2.3	-621.92181	98.063889	-707.74731	-622.91937	103.8357	-650.68036	-487.69839	521.15558	-745.88525	-510.43088	507.49731	-653.44617	-496.24112	967.41382	-822.6579	-655.35944	1138.8439	-566.85413	-455.79996	849.18488	-226.25406	-518.09296	913.81104	-200.12312	-551.15924	535.73694	25.160107	-614.58917	590.49127	79.453278
463	2.305	-622.37219	96.952682	-707.33789	-622.74463	102.15244	-651.78674	-488.00046	520.49194	-745.42462	-512.48724	506.86401	-653.1073	-495.56796	967.14954	-822.0965	-658.43805	1136.2311	-567.64661	-460.23575	840.82538	-228.83163	-522.40234	905.45673	-201.95912	-558.56976	521.83832	14.067862	-622.8551	574.79645	68.279427
464	2.31	-622.87268	95.878876	-706.95929	-623.47632	101.24954	-650.90442	-489.39963	519.24377	-744.44244	-514.47839	506.18668	-652.82983	-494.79822	966.90332	-821.89069	-661.61432	1133.4677	-568.48218	-464.82532	832.65515	-231.40683	-527.14612	896.92395	-203.94261	-565.89539	507.99161	2.750226	-631.41241	559.48163	57.123291
465	2.315	-623.28448	94.785446	-706.67133	-624.13318	99.591881	-651.14587	-490.46069	518.41614	-743.85834	-516.53546	505.40637	-652.63635	-494.0347	966.53186	-821.70197	-664.82086	1130.5677	-569.40186	-469.49045	824.65491	-233.91974	-532.36401	888.26239	-205.97414	-572.94714	494.20407	-8.8844767	-640.19556	544.25739	45.610909
466	2.32	-623.78619	93.621063	-706.70502	-624.80957	97.932899	-651.42065	-491.65948	517.56122	-743.46149	-518.37616	504.66125	-652.70172	-493.18643	966.22479	-821.56427	-668.03357	1127.4951	-570.40741	-474.2558	816.77258	-236.39795	-538.04858	879.39313	-208.08377	-580.008	480.4718	-20.691196	-648.55286	528.6228	33.28669
467	2.325	-624.24591	92.317352	-706.44775	-625.66266	97.955658	-649.32983	-493.39328	516.68646	-743.14417	-520.50952	503.81268	-652.68817	-492.42328	965.99774	-821.62634	-670.73792	1124.5935	-571.23663	-479.16476	808.93256	-238.80667	-544.31122	870.15198	-210.17599	-586.69946	466.983	-32.931454	-657.07709	513.2995	20.680052
468	2.33	-624.70074	91.089943	-706.50092	-626.0592	96.488541	-649.93378	-495.40353	515.72803	-742.91437	-522.91669	502.96826	-652.81964	-491.73172	965.83765	-821.2406	-673.44128	1121.827	-572.11823	-484.26077	800.98792	-241.15387	-550.47095	861.23425	-212.47496	-593.53821	453.60068	-45.408169	-665.92596	498.38541	7.8014307
469	2.335	-625.18463	90.012825	-706.81757	-626.51874	95.053574	-650.60779	-497.16409	515.20575	-742.99237	-525.86676	502.12021	-652.93134	-491.0661	965.83356	-821.14752	-675.97742	1119.0947	-573.04816	-489.51447	792.97552	-243.49551	-557.06256	852.02484	-214.77094	-600.38074	440.30551	-58.173626	-674.22357	483.46902	-5.6237864
470	2.34	-625.46576	88.783722	-706.72107	-627.57526	94.193329	-649.91937	-499.72571	513.85095	-743.00061	-529.17993	501.29117	-653.22754	-490.25998	965.57794	-821.23175	-678.33344	1116.4882	-573.9856	-494.58737	784.82855	-245.77824	-563.72516	842.68915	-217.2048	-604.70374	427.89142	-73.468605	-682.422	469.08231	-19.257574
471	2.345	-625.90179	87.936241	-706.96466	-628.38873	92.046616	-651.04333	-502.12234	512.91321	-743.01093	-531.44318	500.42975	-653.21045	-489.62607	965.31427	-821.27057	-680.50214	1114.103	-574.86005	-499.92667	776.52905	-248.23526	-570.39447	833.23944	-219.81334	-612.1366	414.59766	-86.577873	-691.05035	454.67026	-32.984844
472	2.35	-626.24957	87.097542	-706.92419	-628.23987	91.452515	-651.05243	-504.39078	512.00342	-743.08472	-534.48798	499.65701	-653.27716	-488.89059	965.17334	-821.28467	-682.45679	1111.8623	-575.63928	-505.45877	768.03265	-250.92697	-577.06311	823.7558	-222.67685	-618.32135	402.38321	-100.52283	-698.96259	440.08881	-48.439007
473	2.355	-626.61957	86.259216	-706.77698	-629.71088	91.1772	-649.21765	-506.496	511.09503	-743.1626	-537.59528	498.90335	-653.37085	-488.3226	964.91925	-821.29358	-684.56256	1109.826	-576.44629	-511.12103	759.36383	-253.92285	-583.63403	814.17822	-225.92984	-627.23639	389.70258	-112.231	-706.83063	426.06253	-63.55714
474	2.36	-626.93402	85.678307	-706.53717	-629.53992	90.045204	-650.29559	-508.34857	510.2207	-743.15509	-540.83704	498.26105	-653.38037	-487.59833	964.73358	-821.33435	-686.271	1107.6842	-577.06512	-516.73724	750.6723	-257.25024	-589.93665	804.17163	-230.30025	-634.00555	377.61588	-126.16217	-715.41901	414.05365	-76.346054
475	2.365	-627.17725	85.207466	-706.50269	-630.31689	88.722183	-650.80609	-509.92679	509.36682	-743.04572	-544.09479	497.72006	-653.4212	-486.99228	964.52563	-821.29645	-687.87958	1105.5469	-577.61682	-522.44696	741.87482	-261.01376	-596.31653	794.59595	-234.23946	-640.69519	365.8309	-140.32289	-722.01324	398.95886	-96.129227
476	2.37	-627.43732	84.844551	-706.46729	-630.1272	88.849602	-650.56342	-511.35748	508.66998	-742.82098	-547.37433	497.03406	-653.76221	-486.2952	964.35052	-821.25043	-689.49463	1103.4075	-578.08234	-528.14923	733.11078	-265.18167	-602.64246	784.66339	-238.73477	-645.10596	354.55994	-156.85294	-730.18988	386.84259	-110.25417
477	2.375	-627.67743	84.518654	-706.34613	-631.26215	89.04599	-648.87177	-512.6532	508.11725	-742.62128	-550.49512	497.16156	-653.66162	-485.71033	964.21924	-821.0816	-691.34497	1101.2697	-578.59216	-534.0321	724.39496	-269.61569	-609.1134	775.15948	-243.13788	-653.6825	343.33011	-169.2002	-737.4295	373.86578	-127.70806
478	2.38	-627.89795	84.211945	-706.41418	-631.04205	86.997116	-651.56244	-513.85724	507.73227	-742.36542	-553.51367	496.87952	-653.99011	-485.10138	964.151	-820.92383	-692.90277	1099.1056	-578.97125	-539.95892	715.81024	-274.40326	-615.57983	765.73212	-247.8387	-661.20294	331.54584	-183.47755	-745.19397	361.45633	-144.28394
479	2.385	-628.10657	84.078316	-706.61182	-631.04584	87.849846	-650.59222	-514.71326	507.68555	-742.50171	-556.35718	496.92719	-654.37457	-484.5242	964.13507	-820.96558	-694.41199	1096.9694	-579.33691	-545.91364	707.37958	-279.50098	-622.25793	756.66577	-252.54044	-664.39771	322.23773	-201.24825	-752.89612	351.00394	-158.31303
480	2.39	-628.33179	83.927406	-706.88678	-631.20575	87.889816	-650.81329	-516.24847	507.53201	-742.16736	-558.97314	496.94922	-654.73846	-483.85141	964.2218	-820.3678	-695.98029	1094.7786	-579.80334	-551.99561	699.05237	-284.80368	-628.86029	747.22925	-258.08618	-670.70471	311.98099	-216.49518	-760.13983	339.18399	-175.84496
481	2.395	-628.48987	83.744576	-707.172	-631.77557	88.150085	-651.41113	-517.71759	507.55017	-742.24164	-561.40833	496.98553	-655.20166	-482.97891	964.65149	-820.02814	-697.73376	1092.6165	-580.31348	-558.0863	690.83734	-290.1842	-635.56897	738.05591	-263.72769	-678.41205	301.55142	-230.17162	-767.33783	327.80759	-193.69969
482	2.4	-628.59637	83.299423	-707.03632	-632.19342	86.980721	-652.79266	-519.30591	507.6521	-742.52899	-563.67371	497.08203	-655.83569	-482.3017	965.00964	-819.11755	-699.53448	1090.2889	-581.13354	-564.3183	682.71307	-295.73349	-642.3067	729.04132	-269.62387	-685.61047	291.47852	-244.82683	-774.77393	317.91785	-208.93065
483	2.405	-628.71204	83.196564	-707.43842	-632.27325	88.071304	-651.85651	-520.11237	508.3942	-743.43701	-565.72314	497.1503	-656.60297	-481.48267	965.68781	-818.61542	-701.54083	1088.3389	-581.7442	-570.64758	674.66248	-301.53171	-649.14899	720.23242	-275.67407	-692.11481	282.39151	-260.30432	-781.95422	307.41489	-226.50652
484	2.41	-628.89807	83.235924	-708.078	-633.02429	87.665398	-652.22119	-522.36774	508.16565	-743.70349	-567.51837	497.13022	-657.33868	-480.82254	966.23309	-818.27789	-703.62567	1086.2886	-582.5321	-577.01746	666.69568	-307.2916	-656.03455	711.51831	-281.9935	-698.46655	273.28171	-275.90494	-788.94836	298.21387	-242.73122
485	2.415	-629.0556	83.078926	-708.48615	-632.50916	87.424042	-653.44604	-524.18787	508.20023	-744.3288	-569.14008	497.07629	-658.14288	-480.45807	966.88696	-818.19788	-705.74377	1084.1998	-583.52496	-583.47955	658.77148	-313.22812	-662.95032	703.11951	-288.48663	-704.53918	264.81665	-291.86139	-796.76819	289.45926	-257.97815
